<?xml version="1.0" encoding="iso-8859-1"?>
<!-- Generator: Adobe Illustrator 18.1.1, SVG Export Plug-In . SVG Version: 6.00 Build 0)  -->
<svg version="1.1" id="Capa_1" xmlns="http://www.w3.org/2000/svg" xmlns:xlink="http://www.w3.org/1999/xlink" x="0px" y="0px" viewBox="0 0 612.003 612.003" style="enable-background:new 0 0 612.003 612.003;" fill="currentColor" xml:space="preserve">
    <g>
        <g>
            <g>
                <path d="M250.744,135.186c-5.706-5.716-13.832-8.358-21.808-7.032c-7.976,1.306-14.837,6.369-18.433,13.601L2.625,560.032
				c-4.802,9.664-2.893,21.306,4.731,28.93c4.822,4.822,11.251,7.353,17.76,7.353c3.797,0,7.614-0.854,11.17-2.622l418.276-207.867
				c7.233-3.596,12.305-10.457,13.601-18.433c1.306-7.976-1.306-16.093-7.032-21.808L250.744,135.186z M80.868,515.461
				l159.067-320.063l28.378,28.378c-21.658,2.551-41.166,16.786-49.312,38.614c-11.582,31.07,4.219,65.656,35.249,77.238
				c31.12,11.572,65.696-4.219,77.268-35.289c1.728-4.621,2.773-9.332,3.325-14.023l66.088,66.088L80.868,515.461z" />
                <path d="M383.704,227.241c4.902,4.902,11.331,7.353,17.76,7.353c6.429,0,12.858-2.451,17.76-7.353L568.397,78.058
				c9.814-9.804,9.814-25.706,0-35.51c-9.804-9.814-25.716-9.814-35.51,0L383.704,191.731
				C373.89,201.535,373.89,217.437,383.704,227.241z" />
                <path d="M558.804,240.421l-111.292-12.687c-13.822-1.668-26.228,8.328-27.795,22.11c-1.567,13.782,8.328,26.228,22.11,27.795
				l111.292,12.687c0.964,0.11,1.929,0.161,2.873,0.161c12.597,0,23.456-9.453,24.922-22.27
				C582.48,254.434,572.586,241.998,558.804,240.421z" />
                <path d="M333.297,169.119c1.467,12.818,12.316,22.27,24.922,22.27c0.944,0,1.909-0.05,2.873-0.161
				c13.782-1.567,23.677-14.013,22.11-27.795L370.514,52.131c-1.567-13.782-13.973-23.627-27.795-22.11
				c-13.782,1.567-23.677,14.013-22.11,27.795L333.297,169.119z" />
                <path d="M558.794,182.7c-3.315-1.899-7.423-1.738-10.598,0.402l-5.937,4.018l-6.68-2.622c-3.546-1.386-7.604-0.653-10.427,1.929
				c-2.823,2.572-3.948,6.529-2.893,10.206l1.979,6.901l-4.55,5.545c-2.431,2.953-2.963,7.032-1.396,10.517
				c1.577,3.486,4.992,5.776,8.81,5.897l7.162,0.241l3.867,6.047c1.858,2.903,5.063,4.631,8.458,4.631
				c0.372,0,0.733-0.02,1.105-0.06c3.797-0.422,7.032-2.963,8.338-6.56l2.451-6.74l6.941-1.808c3.707-0.964,6.539-3.948,7.313-7.685
				c0.773-3.747-0.643-7.604-3.667-9.955l-5.666-4.41l0.422-7.152C564.077,188.205,562.119,184.589,558.794,182.7z" />
                <path d="M251.518,115.306l7.162,0.241l3.867,6.047c1.858,2.903,5.063,4.631,8.458,4.631c0.372,0,0.733-0.02,1.105-0.06
				c3.797-0.422,7.032-2.963,8.338-6.56l2.451-6.74l6.941-1.808c3.707-0.964,6.539-3.948,7.313-7.685
				c0.773-3.747-0.643-7.604-3.667-9.955l-5.666-4.41l0.432-7.152c0.231-3.817-1.728-7.434-5.053-9.322
				c-3.325-1.899-7.434-1.728-10.598,0.402l-5.937,4.018l-6.68-2.622c-3.556-1.396-7.594-0.643-10.427,1.929
				c-2.823,2.572-3.948,6.529-2.893,10.206l1.979,6.901l-4.551,5.545c-2.431,2.953-2.963,7.032-1.396,10.517
				C244.275,112.885,247.701,115.176,251.518,115.306z" />
                <path d="M602.521,107.32c-10.156-10.166-27.886-10.156-38.042,0c-8.79,8.78-8.79,23.074,0,31.854
				c7.413,7.413,19.478,7.423,26.901,0c1.959-1.959,1.959-5.143,0-7.102s-5.143-1.959-7.102,0c-3.506,3.486-9.201,3.486-12.697,0
				c-4.862-4.862-4.862-12.788,0-17.65c6.369-6.359,17.469-6.369,23.837,0c4.209,4.219,6.54,9.824,6.54,15.781
				c0,5.957-2.32,11.562-6.54,15.781c-11.371,11.371-29.865,11.371-41.226,0c-1.959-1.959-5.143-1.959-7.102,0s-1.959,5.143,0,7.102
				c7.644,7.644,17.68,11.462,27.715,11.462c10.035,0,20.071-3.817,27.715-11.462c6.108-6.108,9.483-14.234,9.483-22.883
				C612.004,121.565,608.628,113.438,602.521,107.32z" />
                <path d="M504.097,315.117c-8.79,8.78-8.79,23.074,0,31.854c7.413,7.413,19.478,7.423,26.901,0c1.959-1.959,1.959-5.143,0-7.102
				c-1.959-1.959-5.143-1.959-7.102,0c-3.506,3.486-9.201,3.496-12.697,0c-4.862-4.862-4.862-12.778,0-17.65
				c6.369-6.359,17.469-6.369,23.837,0c4.209,4.219,6.539,9.824,6.539,15.781s-2.32,11.562-6.539,15.781
				c-11.371,11.371-29.865,11.371-41.226,0c-1.959-1.959-5.143-1.959-7.102,0s-1.959,5.143,0,7.102
				c7.645,7.645,17.68,11.462,27.715,11.462c10.035,0,20.081-3.817,27.715-11.462c6.108-6.108,9.483-14.234,9.483-22.883
				s-3.365-16.776-9.483-22.883C531.983,304.962,514.253,304.962,504.097,315.117z" />
                <path d="M441.334,87.31c0.05,0,0.111,0,0.161,0c7.192-0.04,13.933-2.873,18.986-7.976c5.053-5.113,7.815-11.884,7.775-19.066
				c-0.03-6.017-2.401-11.663-6.67-15.892c-4.249-4.199-9.864-6.509-15.841-6.509c-0.04,0-0.08,0-0.121,0
				c-10.487,0.05-18.986,8.629-18.925,19.126c0.02,2.762,2.26,4.993,5.023,4.993c0.01,0,0.02,0,0.03,0
				c2.772-0.01,5.013-2.28,4.993-5.043c-0.01-2.401,0.914-4.661,2.602-6.369c1.698-1.728,3.626-2.732,6.399-2.662
				c3.305,0,6.419,1.276,8.77,3.606c2.371,2.341,3.687,5.465,3.697,8.8c0.03,4.5-1.708,8.749-4.872,11.944
				c-3.174,3.194-7.393,4.972-11.894,4.993c-5.836,0.08-11.582-2.26-15.811-6.459c-4.239-4.199-6.59-9.794-6.62-15.751
				c-0.08-16.083,12.928-29.222,29.001-29.312c2.772-0.02,5.013-2.28,5.003-5.043s-2.26-5.003-5.023-5.003c-0.01,0-0.02,0-0.02,0
				c-21.617,0.11-39.116,17.79-38.996,39.398c0.04,8.649,3.446,16.756,9.593,22.833C424.669,83.995,432.745,87.31,441.334,87.31z" />
                <path d="M226.103,361.959c5.927-15.922-2.15-33.642-18.092-39.568c-15.892-5.947-33.632,2.15-39.558,18.082
				c-5.967,15.902,2.16,33.642,18.102,39.568C202.437,385.997,220.177,377.88,226.103,361.959z" />
                <circle cx="228.052" cy="413.481" r="17.278" />
            </g>
        </g>
    </g>
</svg>